<?xml version="1.0" encoding="UTF-8"?>
<svg id="Camada_1" data-name="Camada 1" xmlns="http://www.w3.org/2000/svg" viewBox="0 0 309.49 261.17">
  <defs>
    <style>
      .cls-1 {
        fill: #ffa300;
      }

      .cls-1, .cls-2 {
        stroke-width: 0px;
      }

      .cls-2 {
        fill: #087000;
      }
    </style>
  </defs>
  <g>
    <path class="cls-1" d="M80.37,180.48c.14,2.82.31,5.64.41,8.46.04,1.12.29,2.49-.24,3.31-.82,1.28-2.21,2.19-3.36,3.26-.9-1.26-2.51-2.48-2.57-3.78-.28-5.75-.43-11.54-.05-17.27,1.2-17.69,5.01-34.65,15.44-49.45,9.65-13.69,22.05-23.63,38.92-26.63,17-3.02,31.58,2.11,43.1,14.89,13.71,15.22,18.35,33.57,17.12,53.65-.51,8.27-1.33,16.57-6.34,23.55-2.06,2.88-4.63,5.67-7.57,7.58-11.94,7.76-26.01,1.01-28.62-13.92-.85-4.88-.25-10.09.2-15.1.49-5.48-.6-10.38-4.07-14.58-5.24-6.34-14.6-5.78-20.37.94-4.23,4.93-5.15,10.97-5.78,17.03-1.43,13.8.55,27.02,7.44,39.27,3.73,6.62,8.77,11.97,15.05,16.26,1.38.94,2.62,2.87,2.82,4.49.16,1.29-1.1,3.11-2.25,4.06-.59.48-2.51-.13-3.52-.76-9.95-6.2-16.64-15.1-20.98-25.86-6.52-16.18-7.2-32.76-2.56-49.45,1.08-3.89,3.4-7.67,5.96-10.85,4.82-6.01,11.32-9.17,19.15-7.47,8.16,1.78,12.78,7.71,14.41,15.45,1,4.73.73,9.83.36,14.71-.34,4.49-.43,8.77,1.62,12.89,4.24,8.52,13.81,10.39,20.95,4.08,4.31-3.81,6.02-8.86,6.88-14.34,2.72-17.26.51-33.72-9.29-48.41-15.83-23.72-44.96-27.28-66.81-8.7-13.29,11.3-20.38,25.95-23.29,42.82-1.13,6.55-1.63,13.2-2.42,19.81.08.02.17.03.25.05Z"/>
    <path class="cls-1" d="M91.88,181.1c.35-11.98,1.86-25.62,8.83-38.02,5.29-9.42,12.54-16.87,22.71-20.95,15.72-6.31,32.43-.21,41.1,14.68,6.93,11.9,8.28,24.65,5.94,37.97-.4,2.28-1.19,4.97-4.02,4.49-2.9-.49-2.68-3.33-2.21-5.57,1.49-7.23,1.35-14.4-.77-21.44-3.79-12.55-11.07-21.75-24.79-23.93-8.95-1.42-16.71,1.81-23.43,7.53-9.83,8.37-14.06,19.54-15.93,31.99-2.72,18.08-.09,35.29,7.53,51.84.59,1.28,1.17,2.96.8,4.16-.43,1.41-1.7,2.94-3.01,3.53-.6.27-2.64-1.34-3.21-2.5-6.47-13.19-9.6-27.18-9.54-43.78Z"/>
    <path class="cls-1" d="M139.2,84.4c-19.93.23-34.99,8.21-47.8,21.16-1.51,1.52-2.81,3.27-4.4,4.69-.73.65-2.21,1.29-2.87.96-.92-.45-1.89-1.78-1.96-2.79-.08-1.34.31-3.05,1.16-4.04,14.01-16.52,31.13-27.68,53.38-28.21,24.99-.6,43.81,10.91,56.75,31.89,3.86,6.27,6.19,13.49,9.13,20.31.43.99.83,2.43.42,3.25-.72,1.45-2.07,2.58-3.16,3.85-1.06-.98-2.7-1.77-3.09-2.97-2.61-8-5.98-15.6-10.89-22.45-11.77-16.43-27.7-25.06-46.66-25.63Z"/>
    <path class="cls-1" d="M141.47,61.95c-8.88.55-17.17,2.53-25.24,5.66-2.06.8-4.37,2.15-5.72-1.01-1.04-2.44.17-5.14,3-6.29,24.31-9.86,47.44-8.14,68.99,7.43,3.64,2.63,6.83,5.88,10.22,8.86.51.44,1.01.92,1.39,1.47,1.62,2.4.91,4.63-.92,6.42-1.98,1.92-3.47.26-4.85-1.13-7.82-7.88-16.54-14.51-27.37-17.52-6.36-1.77-12.98-2.62-19.48-3.89Z"/>
    <path class="cls-1" d="M161.19,222.21c-14.16-.34-25.68-9.57-30.8-24.89-3.21-9.61-3.77-19.44-1.67-29.39.47-2.22,1.33-4.6,3.92-4.15,2.61.45,2.71,2.94,2.27,5.22-1.77,9.09-1.25,17.98,2.36,26.57,4.84,11.52,13.31,17.94,26.03,18.17,2.62.05,4.12,1.09,4.09,3.79-.04,2.69-1.11,4.6-4.16,4.68-.68.02-1.35,0-2.03,0Z"/>
  </g>
  <g>
    <path class="cls-2" d="M73.57,110c3.45,4.4,4.99,9.99,4.64,16.53-.24,4.52-.71,6.78-1.55,6.78-.48,0-.48.12-.24.48.36.36.24.71-.36,1.78-.48.71-1.07,1.43-1.31,1.66-.12.12-.36.48-.59.71,0,.36-.48.71-.83.83-.36.12-.71.36-.71.48,0,.48-1.78,1.9-3.57,2.85-1.9,1.07-6.3,2.62-6.54,2.38-.12-.12-.48,0-.71.12-.71.36-5.35.95-9.04.95-1.67.12-8.32.12-14.74,0-6.42,0-11.65-.12-11.53-.24.24-.36.24-8.68,0-25.56-.36-16.88-.24-56.72,0-56.95.12-.12,5.83-.24,12.6-.24,12.13-.12,12.37-.12,14.86.59,2.97.95,6.66,2.5,6.66,2.97,0,.12.24.24.59.24s.59.24.59.36.24.36.59.48c2.14.59,6.54,6.54,8.2,11.06,1.43,3.8,1.67,12.84.36,16.17-.83,1.9-2.02,4.4-2.26,4.4-.12,0-.24.24-.24.48s-.36.83-.83,1.31c-.59.48-.95,1.07-.95,1.19,0,.24-.24.48-.48.59-.36.24,0,.59,1.9,2.02,2.26,1.78,4.4,3.69,4.4,4.04,0,0,.48.71,1.07,1.55ZM43.96,75.16c-2.5,0-4.52.12-4.64.12-.12.24-.36,24.38-.24,24.61h.83c.36-.12,1.78-.24,3.21-.36s2.97-.24,3.57-.48c.48-.12,1.78-.6,2.85-.95,2.62-.83,3.8-1.43,5.83-3.09,1.31-1.07,1.9-1.78,2.5-3.33.71-1.66,1.43-5.11,1.19-5.95-.12-.12-.24-.83-.36-1.55-.59-2.97-2.85-6.18-5.11-7.25-2.85-1.31-4.76-1.66-9.63-1.78ZM63.23,130.33c1.55-.83,2.02-1.9,2.14-4.64.12-4.04-1.9-8.44-4.76-10.58-1.43-1.07-5.47-2.5-7.25-2.62-1.43,0-9.39.36-11.89.59l-1.78.24-.12,9.63v9.99c.12.12.83.24,1.78.24.95-.12,4.16-.24,7.25-.36,8.92-.24,11.65-.71,14.63-2.5Z"/>
    <path class="cls-2" d="M131.71,145.19c0,.12-3.45.12-7.61.24-6.18,0-7.61-.12-7.85-.48-.59-.83-3.33-5.71-3.33-5.83s-3.69-7.02-3.8-7.13c-.12-.12-.83,0-1.78.36-1.55.48-5.35,1.19-6.54,1.19-.59,0-.59.24-.59,6.18l-.12,6.18-2.97.12c-1.66,0-4.64,0-6.54-.12l-3.45-.12-.12-2.26c0-1.43.12-2.38.36-2.5q.24-.24,0-.24c-.36,0-.36-1.9-.36-7.61,0-4.16,0-7.73-.12-7.97-.36-.71-.12-2.5.12-2.5s.12-.24,0-.48c-.24-.24-.36-.48-.24-.71.12-.12,0-.71-.12-1.31-.12-.48-.12-1.43,0-1.9.12-.48.12-1.07,0-1.43-.24-.36-.24-.59,0-.59s.24-.12,0-.59c-.24-.48-.24-.59.12-.59.24,0,.24-.12,0-.24-.24-.12-.36-2.85-.36-9.04-.12-4.88-.12-9.99-.24-11.41-.24-5.47-.48-12.84-.48-18.67,0-7.61,0-6.66-.12-10.34l-.12-3.09,1.55-.12c1.55-.24,10.82-.12,13.79.12.83.12,2.97.24,4.64.36s3.21.36,3.57.48c.24.24.48.24.59.12.12,0,.59.12,1.07.24.48.24,1.19.48,1.66.48.36.12.71.24.83.48.12.12.24.12.48,0,.48-.12,3.57,1.07,3.57,1.55,0,.12.24.24.59.24.24,0,.83.24,1.19.59.48.24,1.19.71,1.78.95,1.31.71,5.83,5.47,5.11,5.47,0,0,.24.36.59.71.59.71,2.5,4.76,2.5,5.59,0,.12.12.36.12.59.48.71,1.55,5.35,1.66,6.9.12.36.24,1.78.48,2.97.36,2.62.59,13.2.24,15.1-.36,2.5-1.19,6.06-1.67,7.02-.24.59-.36,1.07-.24,1.19.24.24-.83,2.38-1.07,2.38-.12,0-.24.36-.24.71s-.24.95-.59,1.43c-.36.48-.71,1.19-.95,1.66-.48.83-3.33,3.69-5.23,5.11l-1.07.71.59,1.43c.36.83.71,1.43.83,1.43.24,0,1.19,1.66,2.02,3.57.36.95,1.55,3.21,2.62,4.99,1.07,1.9,2.02,3.57,2.02,3.69s.71,1.31,1.67,2.5c.95,1.19,1.66,2.26,1.55,2.26ZM100.8,75.63l-2.14-.12.12,7.73c.12,4.16.12,7.61.24,7.73s.24,6.3.36,13.79c0,7.37.24,14.03.24,14.63l.24.95,1.55-.12c.83-.12,3.09-.83,4.99-1.55,2.73-1.07,3.8-1.67,6.06-3.45,1.55-1.31,3.09-2.73,3.45-3.09.71-.95,2.26-5.47,2.38-7.25,0-.59.24-1.19.24-1.43.24-.36.24-8.56,0-11.06-.12-1.9-1.43-7.49-2.02-9.27-1.9-5.23-5.71-7.13-15.7-7.49Z"/>
    <path class="cls-2" d="M199.48,140.79c.59,2.02,1.19,3.92,1.19,4.16,0,.36-1.19.36-6.66.24-3.69,0-6.66-.24-6.78-.36-.48-.48-1.55-3.69-2.02-5.94-.24-1.07-.83-3.45-1.31-4.99l-.95-2.97-2.26-.12h-23.42c-.48.12-.95.12-1.31.24-.36,0-.83.95-1.55,3.69-.71,2.02-1.67,5.11-2.26,7.13l-1.07,3.45-1.9.12c-2.5.36-11.41.24-11.53,0-.24-.24.48-2.62,3.45-11.89,1.19-3.69,2.26-7.13,2.26-7.61.12-.59.36-1.07.48-1.31.24-.12.24-.48.24-.83s.36-1.43.71-2.38c.36-.95.71-2.02.83-2.26,0-.36.24-.48.48-.36.12.12.12-.12,0-.48-.24-.71.59-3.69,1.55-6.18.24-.59.48-1.31.48-1.55,0-.36.24-.83.48-1.19.24-.24.36-.48.12-.48-.36,0,1.9-7.02,4.99-15.58.83-2.14,1.9-5.23,2.38-6.9.48-1.78,1.07-3.45,1.19-3.69.12-.36.24-.83.24-1.07,0-.36.36-1.55.71-2.62.59-1.9,1.07-3.92,3.57-13.56l.83-3.09,7.73.12h7.85l.36,1.07c.24.48.48,1.31.59,1.55,0,.36.12.95.24,1.19,0,.24.59,2.14,1.07,4.28.48,2.14,1.31,5.35,1.78,7.25,1.07,3.57,2.14,7.97,2.62,10.34.12.83.48,2.38.83,3.33.71,2.02,1.78,6.54,2.73,10.46.36,1.55.71,2.97.71,3.21.12.24.36,1.31.59,2.5.36,1.07.59,2.26.83,2.62.48.95,2.62,7.85,3.57,11.53,1.55,5.94,2.38,9.27,2.62,9.75.12.24.48,1.67.83,2.97.36,1.43,1.19,4.16,1.9,6.18ZM179.27,117.37c0-.12-.24-.71-.48-1.31-.24-.59-.48-1.55-.59-2.14,0-.59-.24-1.43-.48-1.78-.12-.36-.24-.71-.12-.71s0-.12-.12-.36c-.12-.24-.71-2.02-1.19-4.16-.59-2.02-1.55-5.59-2.02-7.85-.71-2.38-1.19-4.52-1.31-4.88-.71-3.21-2.38-9.51-2.5-9.51s-.48.95-.83,2.14c-.59,2.14-1.55,4.87-4.28,12.96-1.78,4.99-3.92,11.53-5.23,15.58l-.59,2.14h9.87c5.47,0,9.87-.12,9.87-.12Z"/>
    <path class="cls-2" d="M233.37,145.66c-1.9.83-8.68,1.43-12.37,1.07-4.28-.36-7.97-1.55-8.92-2.73-.24-.36-.59-.59-.83-.71-.95-.12-2.73-2.26-5.35-6.06-2.14-3.45-3.45-7.37-3.69-11.65v-1.67l3.92-.83c2.26-.36,4.99-1.07,6.06-1.31,1.19-.36,2.14-.48,2.26-.36s.24.59.24,1.07c.48,3.33.59,4.52.83,4.87.12.24.36.95.71,1.55.95,2.26,2.26,3.92,3.57,4.64.71.36,7.25.36,9.04-.12.95-.24,1.78-.71,2.85-1.78,1.66-1.66,2.5-3.33,2.97-5.94.24-.95.59-1.67.71-1.67s.12-.24,0-.48c-.12-.36-.24-1.55-.12-2.73,0-1.19-.12-2.26-.24-2.5,0-.12-.12-.48-.24-.59,0-.83-2.02-3.69-3.45-5.11-1.9-2.14-2.85-2.62-8.09-4.16-2.85-.83-8.44-3.33-9.27-4.16-.24-.24-.48-.36-.71-.36s-2.85-2.38-6.06-5.59c-1.78-1.9-4.16-6.42-4.76-9.39-.36-2.14-.48-6.3-.12-6.9,0-.12.12-.71.24-1.31,0-1.31.12-1.43.95-4.4.71-2.26,2.14-5.11,2.73-5.35.24-.12.36-.36.24-.48-.36-.48,3.8-4.28,6.42-6.06,3.69-2.5,6.06-3.21,10.82-3.21,3.09,0,4.28.24,6.9.83,1.67.48,3.45,1.19,4.04,1.55.59.24,1.19.59,1.43.59.95,0,5.83,4.88,7.37,7.25,2.5,3.8,4.64,9.87,3.8,10.34-.48.36-4.64,1.55-6.06,1.78-.36,0-1.9.48-3.45.83-1.66.48-2.73.59-2.62.36.12-.48-1.19-3.92-2.14-5.71-1.31-2.14-2.62-3.33-4.4-3.92-2.14-.83-5.35-1.07-6.9-.59-3.69,1.19-6.54,5.47-6.54,9.99,0,2.38.71,3.92,3.45,6.66,2.85,2.85,3.69,3.21,10.58,5.47,1.43.48,2.73,1.07,2.97,1.31.24.24.48.36.71.36s1.31.48,2.26,1.07c6.3,3.33,11.41,10.34,12.72,17.24.71,3.92-.12,13.44-1.31,14.15-.24.12-.24.24,0,.24.36,0-.71,3.09-1.19,3.45-.24.12-.24.24-.24.24.12.12-.36.95-.83,1.9-1.07,1.9-5.71,6.66-6.42,6.66-.24,0-.36.12-.36.24,0,.24-1.78,1.19-4.16,2.14Z"/>
    <path class="cls-2" d="M255.6,144.95c-.24-.71-.24-39.12.12-56.95.12-7.85.24-16.65.24-19.74v-5.59h13.08l-.12,13.91c-.12,10.11-.24,14.03-.48,14.15-.36.24-.36.36-.12.48.36.12.36,2.38.24,7.97-.24,11.18-.24,37.57,0,42.21l.12,4.04h-6.42c-5.83,0-6.42,0-6.66-.48Z"/>
    <path class="cls-2" d="M52.6,223.5s-5.67-.1-12.59-.19c-7.02-.1-12.88-.19-13.07-.29-.29-.1-.29-.87-.29-3.56-.1-1.83-.1-10.28-.19-18.84,0-10.19,0-15.47.19-15.47.1,0,.1-.1,0-.29-.19-.19-.29-1.63-.29-3.27v-12.59c-.1-5.38-.1-10.19-.1-10.86v-1.15h5.09c2.79,0,5.09.1,5.19.19.1.19.38,30.47.38,47.96,0,4.04.1,7.4.19,7.5.19.1,4.9.19,10.67.19,8.36.19,10.48.19,10.67.48.1.19.19,2.5.1,5.29v4.9h-5.96Z"/>
    <path class="cls-2" d="M64.61,223.31c-.19-.58-.19-31.62.1-46.04.1-6.34.19-13.46.19-15.96v-4.52h10.57l-.1,11.25c-.1,8.17-.19,11.34-.38,11.44-.29.19-.29.29-.1.38.29.1.29,1.92.19,6.44-.19,9.04-.19,30.37,0,34.12l.1,3.27h-5.19c-4.71,0-5.19,0-5.38-.38Z"/>
    <path class="cls-2" d="M124.2,191.11c.1,8.27.1,7.88-1.54,14.9-.96,4.32-2.4,7.02-5.09,9.61-.96.86-2.02,1.92-2.5,2.31-.77.86-2.31,1.92-2.6,1.92-.19,0-.38.19-.58.29-.48.48-3.08,1.63-3.94,1.83-.38,0-1.15.29-1.73.48-1.83.58-2.98.77-5,.96-1.15.1-2.11.19-2.21.29-.19.19-9.04.29-13.65.19l-4.04-.1-.1-5c0-6.44,0-8.65.19-17.59.1-4.04.19-11.73.29-17.01.1-5.29.19-10.38.19-11.25.1-.86.19-4.81.19-8.75v-7.02l2.02-.19c2.6-.1,13.94-.38,17.97-.38,2.4,0,3.56.1,5.38.58,2.02.58,4.61,1.63,5.57,2.5.1.1.96.67,1.73,1.35,2.98,2.4,4.9,4.71,6.34,8.07.48,1.06.96,2.5,1.06,3.08.1.58.38,1.63.58,2.5.48,1.44.67,2.31.87,5.29.19,1.06.29,2.31.29,2.69.1.48.19,4.23.29,8.46ZM113.53,185.54c-.19-4.04-.38-5.96-1.35-9.71-.96-3.75-1.92-5.29-4.61-7.02-.48-.38-1.06-.77-1.06-.86-.1-.19-1.44-.58-2.88-.96-2.31-.58-2.98-.67-4.9-.58-3.75.19-5.77.38-5.86.58-.1.1-.19,1.83-.29,3.84-.1,2.02-.19,5-.29,6.54s-.19,7.79-.19,13.84c-.1,6.06-.19,13.46-.29,16.44s-.1,5.57,0,5.77c.19.29,1.63.29,5.57-.1,6.63-.67,9.61-1.83,12.3-4.61,2.02-2.11,2.5-3.36,3.46-8.55.58-2.88.67-7.98.38-14.61Z"/>
    <path class="cls-2" d="M176.67,219.95c.48,1.63.96,3.17.96,3.36,0,.29-.96.29-5.38.19-2.98,0-5.38-.19-5.48-.29-.38-.38-1.25-2.98-1.63-4.81-.19-.87-.67-2.79-1.06-4.04l-.77-2.4-1.83-.1h-18.93c-.38.1-.77.1-1.06.19-.29,0-.67.77-1.25,2.98-.58,1.63-1.35,4.13-1.83,5.77l-.86,2.79-1.54.1c-2.02.29-9.23.19-9.32,0-.19-.19.38-2.11,2.79-9.61.96-2.98,1.83-5.77,1.83-6.15.1-.48.29-.86.38-1.06.19-.1.19-.38.19-.67s.29-1.15.58-1.92c.29-.77.58-1.63.67-1.83,0-.29.19-.38.38-.29.1.1.1-.1,0-.38-.19-.58.48-2.98,1.25-5,.19-.48.38-1.06.38-1.25,0-.29.19-.67.38-.96.19-.19.29-.38.1-.38-.29,0,1.54-5.67,4.04-12.59.67-1.73,1.54-4.23,1.92-5.57.38-1.44.86-2.79.96-2.98.1-.29.19-.67.19-.86,0-.29.29-1.25.58-2.11.48-1.54.86-3.17,2.88-10.96l.67-2.5,6.25.1h6.34l.29.86c.19.38.38,1.06.48,1.25,0,.29.1.77.19.96,0,.19.48,1.73.87,3.46.38,1.73,1.06,4.33,1.44,5.86.86,2.88,1.73,6.44,2.11,8.36.1.67.38,1.92.67,2.69.58,1.63,1.44,5.29,2.21,8.46.29,1.25.58,2.4.58,2.6.1.19.29,1.06.48,2.02.29.86.48,1.83.67,2.11.38.77,2.11,6.34,2.88,9.32,1.25,4.81,1.92,7.5,2.11,7.88.1.19.38,1.35.67,2.4.29,1.15.96,3.36,1.54,5ZM160.33,201.01c0-.1-.19-.58-.38-1.06-.19-.48-.38-1.25-.48-1.73,0-.48-.19-1.15-.38-1.44-.1-.29-.19-.58-.1-.58s0-.1-.1-.29c-.1-.19-.58-1.63-.96-3.36-.48-1.63-1.25-4.52-1.63-6.34-.58-1.92-.96-3.65-1.06-3.94-.58-2.6-1.92-7.69-2.02-7.69s-.38.77-.67,1.73c-.48,1.73-1.25,3.94-3.46,10.48-1.44,4.04-3.17,9.32-4.23,12.59l-.48,1.73h7.98c4.42,0,7.98-.1,7.98-.1Z"/>
    <path class="cls-2" d="M224.53,191.11c.1,8.27.1,7.88-1.54,14.9-.96,4.32-2.4,7.02-5.09,9.61-.96.86-2.02,1.92-2.5,2.31-.77.86-2.31,1.92-2.6,1.92-.19,0-.38.19-.58.29-.48.48-3.08,1.63-3.94,1.83-.38,0-1.15.29-1.73.48-1.83.58-2.98.77-5,.96-1.15.1-2.11.19-2.21.29-.19.19-9.03.29-13.65.19l-4.04-.1-.1-5c0-6.44,0-8.65.19-17.59.1-4.04.19-11.73.29-17.01.1-5.29.19-10.38.19-11.25.1-.86.19-4.81.19-8.75v-7.02l2.02-.19c2.6-.1,13.94-.38,17.97-.38,2.4,0,3.56.1,5.38.58,2.02.58,4.61,1.63,5.58,2.5.1.1.96.67,1.73,1.35,2.98,2.4,4.9,4.71,6.34,8.07.48,1.06.96,2.5,1.06,3.08.1.58.38,1.63.58,2.5.48,1.44.67,2.31.86,5.29.19,1.06.29,2.31.29,2.69.1.48.19,4.23.29,8.46ZM213.87,185.54c-.19-4.04-.38-5.96-1.35-9.71-.96-3.75-1.92-5.29-4.61-7.02-.48-.38-1.06-.77-1.06-.86-.1-.19-1.44-.58-2.88-.96-2.31-.58-2.98-.67-4.9-.58-3.75.19-5.77.38-5.86.58-.1.1-.19,1.83-.29,3.84-.1,2.02-.19,5-.29,6.54-.1,1.54-.19,7.79-.19,13.84-.1,6.06-.19,13.46-.29,16.44-.1,2.98-.1,5.57,0,5.77.19.29,1.63.29,5.57-.1,6.63-.67,9.61-1.83,12.3-4.61,2.02-2.11,2.5-3.36,3.46-8.55.58-2.88.67-7.98.38-14.61Z"/>
    <path class="cls-2" d="M269.03,159.2c0,1.06,0,3.27-.1,5.09l-.1,3.27-5.38-.1h-20.47c-.77,0-1.44,0-1.44.19,0,.48-.29,19.7-.29,20.38,0,.38.1.77.19.86,0,.1,4.52.1,9.8.1l9.8-.1v.77c.1,2.88,0,9.42-.1,9.52-.29.29-3.36.38-4.04.1-.38-.19-.77-.19-.96,0-.19.1-2.5.29-6.05.29h-7.11l-1.35.1-.1,2.31c0,2.02.29,8.36.58,10.38,0,.38.1.67.1.77,0,.19,4.52.19,9.9.1,8.65-.19,16.05-.19,16.24,0,0,0,0,2.31.1,5.09,0,3.94-.1,5-.29,5.19-.19.1-1.63.19-3.27.1-1.54-.1-4.23-.1-6.05-.1-1.73,0-8.56.1-15.09.1l-11.92.19v-.96c0-.58-.1-2.5-.1-4.42-.1-1.92-.19-4.61-.29-5.96-.48-8.84-.48-7.3-.38-34.02,0-7.21,0-13.74-.1-14.42,0-.77-.1-2.69-.19-4.33-.19-2.4-.19-2.88.1-2.88,2.11-.19,14.99.19,15.38.38.1.1.29.1.48-.1.38-.29,19.8-.19,21.34.1l1.06.19.1,1.83Z"/>
  </g>
  <path class="cls-2" d="M262.64,24.5l-21.41,14.81,20.99,15.62,20.99-15.62-20.58-14.81ZM262.23,47.42c-4.26,0-7.71-3.45-7.71-7.71s3.45-7.71,7.71-7.71,7.71,3.45,7.71,7.71-3.45,7.71-7.71,7.71Z"/>
</svg>