<?xml version="1.0" encoding="UTF-8"?>
<svg id="Camada_1" data-name="Camada 1" xmlns="http://www.w3.org/2000/svg" viewBox="0 0 367.55 86.14">
  <defs>
    <style>
      .cls-1 {
        fill: #ffa300;
      }

      .cls-1, .cls-2 {
        stroke-width: 0px;
      }

      .cls-2 {
        fill: #087000;
      }
    </style>
  </defs>
  <g>
    <path class="cls-2" d="M39.11,57.35c.05,1.02.11,2.05.15,3.07.01.41.1.9-.09,1.2-.3.47-.8.8-1.22,1.18-.33-.46-.91-.9-.94-1.37-.1-2.09-.16-4.19-.02-6.28.44-6.43,1.82-12.59,5.61-17.97,3.51-4.97,8.01-8.59,14.15-9.68,6.18-1.1,11.48.77,15.67,5.41,4.99,5.53,6.67,12.2,6.22,19.5-.18,3.01-.48,6.02-2.3,8.56-.75,1.05-1.68,2.06-2.75,2.76-4.34,2.82-9.45.37-10.4-5.06-.31-1.77-.09-3.67.07-5.49.18-1.99-.22-3.77-1.48-5.3-1.9-2.31-5.31-2.1-7.41.34-1.54,1.79-1.87,3.99-2.1,6.19-.52,5.02.2,9.82,2.71,14.28,1.35,2.41,3.19,4.35,5.47,5.91.5.34.95,1.04,1.03,1.63.06.47-.4,1.13-.82,1.47-.21.18-.91-.05-1.28-.28-3.62-2.25-6.05-5.49-7.63-9.4-2.37-5.88-2.62-11.91-.93-17.98.39-1.41,1.24-2.79,2.17-3.95,1.75-2.18,4.12-3.33,6.96-2.71,2.97.65,4.64,2.8,5.24,5.62.36,1.72.26,3.57.13,5.35-.12,1.63-.16,3.19.59,4.68,1.54,3.1,5.02,3.78,7.62,1.48,1.57-1.39,2.19-3.22,2.5-5.21.99-6.27.18-12.26-3.38-17.6-5.75-8.62-16.34-9.92-24.29-3.16-4.83,4.11-7.41,9.43-8.47,15.56-.41,2.38-.59,4.8-.88,7.2.03,0,.06.01.09.02Z"/>
    <path class="cls-2" d="M43.3,57.58c.13-4.36.68-9.31,3.21-13.82,1.92-3.43,4.56-6.13,8.25-7.61,5.72-2.29,11.79-.08,14.94,5.34,2.52,4.33,3.01,8.96,2.16,13.8-.15.83-.43,1.81-1.46,1.63-1.05-.18-.97-1.21-.8-2.03.54-2.63.49-5.23-.28-7.79-1.38-4.56-4.03-7.9-9.01-8.7-3.25-.52-6.07.66-8.52,2.74-3.57,3.04-5.11,7.1-5.79,11.63-.99,6.57-.03,12.83,2.74,18.84.21.46.43,1.08.29,1.51-.16.51-.62,1.07-1.09,1.28-.22.1-.96-.49-1.17-.91-2.35-4.8-3.49-9.88-3.47-15.91Z"/>
    <path class="cls-2" d="M60.5,22.43c-7.24.08-12.72,2.98-17.38,7.69-.55.55-1.02,1.19-1.6,1.7-.26.24-.8.47-1.04.35-.34-.16-.69-.65-.71-1.02-.03-.49.11-1.11.42-1.47,5.09-6,11.32-10.06,19.4-10.26,9.08-.22,15.93,3.97,20.63,11.59,1.4,2.28,2.25,4.9,3.32,7.38.16.36.3.88.15,1.18-.26.53-.75.94-1.15,1.4-.39-.36-.98-.64-1.12-1.08-.95-2.91-2.17-5.67-3.96-8.16-4.28-5.97-10.07-9.11-16.96-9.32Z"/>
    <path class="cls-2" d="M61.32,14.26c-3.23.2-6.24.92-9.18,2.06-.75.29-1.59.78-2.08-.37-.38-.89.06-1.87,1.09-2.29,8.84-3.58,17.24-2.96,25.08,2.7,1.32.96,2.48,2.14,3.71,3.22.18.16.37.33.5.54.59.87.33,1.68-.34,2.33-.72.7-1.26.09-1.76-.41-2.84-2.86-6.01-5.27-9.95-6.37-2.31-.64-4.72-.95-7.08-1.41Z"/>
    <path class="cls-2" d="M68.49,72.52c-5.15-.12-9.34-3.48-11.2-9.05-1.17-3.49-1.37-7.07-.61-10.68.17-.81.48-1.67,1.42-1.51.95.16.99,1.07.82,1.9-.64,3.3-.45,6.54.86,9.66,1.76,4.19,4.84,6.52,9.46,6.61.95.02,1.5.4,1.49,1.38-.01.98-.4,1.67-1.51,1.7-.25,0-.49,0-.74,0Z"/>
  </g>
  <g>
    <path class="cls-1" d="M170.96,5.63l-10.87,7.52,10.66,7.93,10.66-7.93-10.45-7.52ZM170.75,17.27c-2.16,0-3.91-1.75-3.91-3.91s1.75-3.91,3.91-3.91,3.91,1.75,3.91,3.91-1.75,3.91-3.91,3.91Z"/>
    <g>
      <path class="cls-1" d="M75.28,49.54c1.75,2.23,2.54,5.07,2.35,8.39-.12,2.29-.36,3.44-.78,3.44-.24,0-.24.06-.12.24.18.18.12.36-.18.91-.24.36-.54.72-.66.85-.06.06-.18.24-.3.36,0,.18-.24.36-.42.42-.18.06-.36.18-.36.24,0,.24-.91.97-1.81,1.45-.97.54-3.2,1.33-3.32,1.21-.06-.06-.24,0-.36.06-.36.18-2.72.48-4.59.48-.85.06-4.23.06-7.49,0-3.26,0-5.92-.06-5.86-.12.12-.18.12-4.41,0-12.98-.18-8.57-.12-28.8,0-28.92.06-.06,2.96-.12,6.4-.12,6.16-.06,6.28-.06,7.55.3,1.51.48,3.38,1.27,3.38,1.51,0,.06.12.12.3.12s.3.12.3.18.12.18.3.24c1.09.3,3.32,3.32,4.17,5.62.72,1.93.85,6.52.18,8.21-.42.97-1.03,2.23-1.15,2.23-.06,0-.12.12-.12.24s-.18.42-.42.66c-.3.24-.48.54-.48.6,0,.12-.12.24-.24.3-.18.12,0,.3.97,1.03,1.15.91,2.23,1.87,2.23,2.05,0,0,.24.36.54.78ZM60.25,31.85c-1.27,0-2.29.06-2.35.06-.06.12-.18,12.38-.12,12.5h.42c.18-.06.91-.12,1.63-.18s1.51-.12,1.81-.24c.24-.06.91-.3,1.45-.48,1.33-.42,1.93-.72,2.96-1.57.66-.54.97-.91,1.27-1.69.36-.85.72-2.6.6-3.02-.06-.06-.12-.42-.18-.78-.3-1.51-1.45-3.14-2.6-3.68-1.45-.66-2.42-.85-4.89-.91ZM70.03,59.86c.79-.42,1.03-.97,1.09-2.35.06-2.05-.97-4.29-2.42-5.37-.72-.54-2.78-1.27-3.68-1.33-.72,0-4.77.18-6.04.3l-.91.12-.06,4.89v5.07c.06.06.42.12.91.12.48-.06,2.11-.12,3.68-.18,4.53-.12,5.92-.36,7.43-1.27Z"/>
      <path class="cls-1" d="M104.81,67.41c0,.06-1.75.06-3.86.12-3.14,0-3.86-.06-3.99-.24-.3-.42-1.69-2.9-1.69-2.96s-1.87-3.56-1.93-3.62c-.06-.06-.42,0-.91.18-.79.24-2.72.6-3.32.6-.3,0-.3.12-.3,3.14l-.06,3.14-1.51.06c-.85,0-2.35,0-3.32-.06l-1.75-.06-.06-1.15c0-.72.06-1.21.18-1.27q.12-.12,0-.12c-.18,0-.18-.97-.18-3.86,0-2.11,0-3.92-.06-4.05-.18-.36-.06-1.27.06-1.27s.06-.12,0-.24c-.12-.12-.18-.24-.12-.36.06-.06,0-.36-.06-.66-.06-.24-.06-.72,0-.97.06-.24.06-.54,0-.72-.12-.18-.12-.3,0-.3s.12-.06,0-.3c-.12-.24-.12-.3.06-.3.12,0,.12-.06,0-.12-.12-.06-.18-1.45-.18-4.59-.06-2.48-.06-5.07-.12-5.8-.12-2.78-.24-6.52-.24-9.48,0-3.86,0-3.38-.06-5.25l-.06-1.57.79-.06c.79-.12,5.49-.06,7,.06.42.06,1.51.12,2.35.18s1.63.18,1.81.24c.12.12.24.12.3.06.06,0,.3.06.54.12.24.12.6.24.85.24.18.06.36.12.42.24.06.06.12.06.24,0,.24-.06,1.81.54,1.81.79,0,.06.12.12.3.12.12,0,.42.12.6.3.24.12.6.36.91.48.66.36,2.96,2.78,2.6,2.78,0,0,.12.18.3.36.3.36,1.27,2.42,1.27,2.84,0,.06.06.18.06.3.24.36.78,2.72.85,3.5.06.18.12.91.24,1.51.18,1.33.3,6.7.12,7.67-.18,1.27-.6,3.08-.85,3.56-.12.3-.18.54-.12.6.12.12-.42,1.21-.54,1.21-.06,0-.12.18-.12.36s-.12.48-.3.72c-.18.24-.36.6-.48.85-.24.42-1.69,1.87-2.66,2.6l-.54.36.3.72c.18.42.36.72.42.72.12,0,.6.85,1.03,1.81.18.48.78,1.63,1.33,2.54.54.97,1.03,1.81,1.03,1.87s.36.66.85,1.27c.48.6.85,1.15.78,1.15ZM89.11,32.09l-1.09-.06.06,3.92c.06,2.11.06,3.86.12,3.92s.12,3.2.18,7c0,3.74.12,7.13.12,7.43l.12.48.78-.06c.42-.06,1.57-.42,2.54-.78,1.39-.54,1.93-.85,3.08-1.75.78-.66,1.57-1.39,1.75-1.57.36-.48,1.15-2.78,1.21-3.68,0-.3.12-.6.12-.72.12-.18.12-4.35,0-5.62-.06-.97-.72-3.8-1.03-4.71-.97-2.66-2.9-3.62-7.97-3.8Z"/>
      <path class="cls-1" d="M139.22,65.17c.3,1.03.6,1.99.6,2.11,0,.18-.6.18-3.38.12-1.87,0-3.38-.12-3.44-.18-.24-.24-.79-1.87-1.03-3.02-.12-.54-.42-1.75-.66-2.54l-.48-1.51-1.15-.06h-11.9c-.24.06-.48.06-.66.12-.18,0-.42.48-.78,1.87-.36,1.03-.85,2.6-1.15,3.62l-.54,1.75-.97.06c-1.27.18-5.8.12-5.86,0-.12-.12.24-1.33,1.75-6.04.6-1.87,1.15-3.62,1.15-3.86.06-.3.18-.54.24-.66.12-.06.12-.24.12-.42s.18-.72.36-1.21c.18-.48.36-1.03.42-1.15,0-.18.12-.24.24-.18.06.06.06-.06,0-.24-.12-.36.3-1.87.78-3.14.12-.3.24-.66.24-.79,0-.18.12-.42.24-.6.12-.12.18-.24.06-.24-.18,0,.97-3.56,2.54-7.91.42-1.09.97-2.66,1.21-3.5.24-.91.54-1.75.6-1.87.06-.18.12-.42.12-.54,0-.18.18-.79.36-1.33.3-.97.54-1.99,1.81-6.88l.42-1.57,3.92.06h3.99l.18.54c.12.24.24.66.3.79,0,.18.06.48.12.6,0,.12.3,1.09.54,2.17.24,1.09.66,2.72.91,3.68.54,1.81,1.09,4.05,1.33,5.25.06.42.24,1.21.42,1.69.36,1.03.91,3.32,1.39,5.31.18.78.36,1.51.36,1.63.06.12.18.66.3,1.27.18.54.3,1.15.42,1.33.24.48,1.33,3.99,1.81,5.86.79,3.02,1.21,4.71,1.33,4.95.06.12.24.85.42,1.51.18.72.6,2.11.97,3.14ZM128.96,53.28c0-.06-.12-.36-.24-.66-.12-.3-.24-.79-.3-1.09,0-.3-.12-.72-.24-.91-.06-.18-.12-.36-.06-.36s0-.06-.06-.18c-.06-.12-.36-1.03-.6-2.11-.3-1.03-.78-2.84-1.03-3.99-.36-1.21-.6-2.29-.66-2.48-.36-1.63-1.21-4.83-1.27-4.83s-.24.48-.42,1.09c-.3,1.09-.79,2.48-2.17,6.58-.91,2.54-1.99,5.86-2.66,7.91l-.3,1.09h5.01c2.78,0,5.01-.06,5.01-.06Z"/>
      <path class="cls-1" d="M156.43,67.65c-.97.42-4.41.72-6.28.54-2.17-.18-4.05-.78-4.53-1.39-.12-.18-.3-.3-.42-.36-.48-.06-1.39-1.15-2.72-3.08-1.09-1.75-1.75-3.74-1.87-5.92v-.85l1.99-.42c1.15-.18,2.54-.54,3.08-.66.6-.18,1.09-.24,1.15-.18s.12.3.12.54c.24,1.69.3,2.29.42,2.48.06.12.18.48.36.78.48,1.15,1.15,1.99,1.81,2.35.36.18,3.68.18,4.59-.06.48-.12.91-.36,1.45-.91.85-.85,1.27-1.69,1.51-3.02.12-.48.3-.85.36-.85s.06-.12,0-.24c-.06-.18-.12-.79-.06-1.39,0-.6-.06-1.15-.12-1.27,0-.06-.06-.24-.12-.3,0-.42-1.03-1.87-1.75-2.6-.97-1.09-1.45-1.33-4.11-2.11-1.45-.42-4.29-1.69-4.71-2.11-.12-.12-.24-.18-.36-.18s-1.45-1.21-3.08-2.84c-.91-.97-2.11-3.26-2.42-4.77-.18-1.09-.24-3.2-.06-3.5,0-.06.06-.36.12-.66,0-.66.06-.72.48-2.23.36-1.15,1.09-2.6,1.39-2.72.12-.06.18-.18.12-.24-.18-.24,1.93-2.17,3.26-3.08,1.87-1.27,3.08-1.63,5.49-1.63,1.57,0,2.17.12,3.5.42.85.24,1.75.6,2.05.78.3.12.6.3.72.3.48,0,2.96,2.48,3.74,3.68,1.27,1.93,2.35,5.01,1.93,5.25-.24.18-2.35.78-3.08.91-.18,0-.97.24-1.75.42-.85.24-1.39.3-1.33.18.06-.24-.6-1.99-1.09-2.9-.66-1.09-1.33-1.69-2.23-1.99-1.09-.42-2.72-.54-3.5-.3-1.87.6-3.32,2.78-3.32,5.07,0,1.21.36,1.99,1.75,3.38,1.45,1.45,1.87,1.63,5.37,2.78.72.24,1.39.54,1.51.66.12.12.24.18.36.18s.66.24,1.15.54c3.2,1.69,5.8,5.25,6.46,8.76.36,1.99-.06,6.82-.66,7.19-.12.06-.12.12,0,.12.18,0-.36,1.57-.6,1.75-.12.06-.12.12-.12.12.06.06-.18.48-.42.97-.54.97-2.9,3.38-3.26,3.38-.12,0-.18.06-.18.12,0,.12-.91.6-2.11,1.09Z"/>
      <path class="cls-1" d="M167.72,67.29c-.12-.36-.12-19.87.06-28.92.06-3.99.12-8.45.12-10.02v-2.84h6.64l-.06,7.06c-.06,5.13-.12,7.13-.24,7.19-.18.12-.18.18-.06.24.18.06.18,1.21.12,4.05-.12,5.68-.12,19.08,0,21.44l.06,2.05h-3.26c-2.96,0-3.26,0-3.38-.24Z"/>
      <path class="cls-1" d="M196.13,66.77s-3.52-.06-7.82-.12c-4.36-.06-8-.12-8.12-.18-.18-.06-.18-.54-.18-2.21-.06-1.14-.06-6.39-.12-11.71,0-6.33,0-9.62.12-9.62.06,0,.06-.06,0-.18-.12-.12-.18-1.02-.18-2.03v-7.82c-.06-3.34-.06-6.33-.06-6.75v-.72h3.17c1.73,0,3.17.06,3.23.12.06.12.24,18.94.24,29.81,0,2.51.06,4.6.12,4.66.12.06,3.05.12,6.63.12,5.2.12,6.51.12,6.63.3.06.12.12,1.55.06,3.29v3.05h-3.7Z"/>
      <path class="cls-1" d="M203.59,66.65c-.12-.36-.12-19.65.06-28.61.06-3.94.12-8.36.12-9.92v-2.81h6.57l-.06,6.99c-.06,5.08-.12,7.05-.24,7.11-.18.12-.18.18-.06.24.18.06.18,1.19.12,4-.12,5.62-.12,18.88,0,21.21l.06,2.03h-3.23c-2.93,0-3.23,0-3.35-.24Z"/>
      <path class="cls-1" d="M240.63,46.64c.06,5.14.06,4.9-.96,9.26-.6,2.69-1.49,4.36-3.17,5.97-.6.54-1.25,1.19-1.55,1.43-.48.54-1.43,1.19-1.61,1.19-.12,0-.24.12-.36.18-.3.3-1.91,1.02-2.45,1.14-.24,0-.72.18-1.08.3-1.14.36-1.85.48-3.11.6-.72.06-1.31.12-1.37.18-.12.12-5.62.18-8.48.12l-2.51-.06-.06-3.11c0-4,0-5.38.12-10.93.06-2.51.12-7.29.18-10.57.06-3.29.12-6.45.12-6.99.06-.54.12-2.99.12-5.44v-4.36l1.25-.12c1.61-.06,8.66-.24,11.17-.24,1.49,0,2.21.06,3.34.36,1.25.36,2.87,1.02,3.46,1.55.06.06.6.42,1.08.84,1.85,1.49,3.05,2.93,3.94,5.02.3.66.6,1.55.66,1.91.06.36.24,1.02.36,1.55.3.9.42,1.43.54,3.29.12.66.18,1.43.18,1.67.06.3.12,2.63.18,5.26ZM233.99,43.18c-.12-2.51-.24-3.7-.84-6.03-.6-2.33-1.19-3.29-2.87-4.36-.3-.24-.66-.48-.66-.54-.06-.12-.9-.36-1.79-.6-1.43-.36-1.85-.42-3.05-.36-2.33.12-3.58.24-3.64.36-.06.06-.12,1.13-.18,2.39-.06,1.25-.12,3.11-.18,4.06s-.12,4.84-.12,8.6c-.06,3.76-.12,8.36-.18,10.21-.06,1.85-.06,3.46,0,3.58.12.18,1.02.18,3.46-.06,4.12-.42,5.97-1.14,7.65-2.87,1.25-1.31,1.55-2.09,2.15-5.32.36-1.79.42-4.96.24-9.08Z"/>
      <path class="cls-1" d="M273.24,64.56c.3,1.02.6,1.97.6,2.09,0,.18-.6.18-3.35.12-1.85,0-3.34-.12-3.4-.18-.24-.24-.78-1.85-1.02-2.99-.12-.54-.42-1.73-.66-2.51l-.48-1.49-1.14-.06h-11.77c-.24.06-.48.06-.66.12-.18,0-.42.48-.78,1.85-.36,1.02-.84,2.57-1.14,3.58l-.54,1.73-.96.06c-1.25.18-5.73.12-5.79,0-.12-.12.24-1.31,1.73-5.97.6-1.85,1.13-3.58,1.13-3.82.06-.3.18-.54.24-.66.12-.06.12-.24.12-.42s.18-.72.36-1.19c.18-.48.36-1.02.42-1.13,0-.18.12-.24.24-.18.06.06.06-.06,0-.24-.12-.36.3-1.85.78-3.11.12-.3.24-.66.24-.78,0-.18.12-.42.24-.6.12-.12.18-.24.06-.24-.18,0,.96-3.52,2.51-7.83.42-1.08.96-2.63,1.19-3.46.24-.9.54-1.73.6-1.85.06-.18.12-.42.12-.54,0-.18.18-.78.36-1.31.3-.96.54-1.97,1.79-6.81l.42-1.55,3.88.06h3.94l.18.54c.12.24.24.66.3.78,0,.18.06.48.12.6,0,.12.3,1.08.54,2.15.24,1.08.66,2.69.9,3.64.54,1.79,1.08,4,1.31,5.2.06.42.24,1.19.42,1.67.36,1.02.9,3.29,1.37,5.26.18.78.36,1.49.36,1.61.06.12.18.66.3,1.25.18.54.3,1.13.42,1.31.24.48,1.31,3.94,1.79,5.79.78,2.99,1.19,4.66,1.31,4.9.06.12.24.84.42,1.49.18.72.6,2.09.96,3.11ZM263.08,52.79c0-.06-.12-.36-.24-.66-.12-.3-.24-.78-.3-1.08,0-.3-.12-.72-.24-.9-.06-.18-.12-.36-.06-.36s0-.06-.06-.18c-.06-.12-.36-1.02-.6-2.09-.3-1.02-.78-2.81-1.02-3.94-.36-1.19-.6-2.27-.66-2.45-.36-1.61-1.19-4.78-1.25-4.78s-.24.48-.42,1.08c-.3,1.08-.78,2.45-2.15,6.51-.9,2.51-1.97,5.79-2.63,7.83l-.3,1.08h4.96c2.75,0,4.96-.06,4.96-.06Z"/>
      <path class="cls-1" d="M302.98,46.64c.06,5.14.06,4.9-.96,9.26-.6,2.69-1.49,4.36-3.17,5.97-.6.54-1.25,1.19-1.55,1.43-.48.54-1.43,1.19-1.61,1.19-.12,0-.24.12-.36.18-.3.3-1.91,1.02-2.45,1.14-.24,0-.72.18-1.08.3-1.14.36-1.85.48-3.11.6-.72.06-1.31.12-1.37.18-.12.12-5.61.18-8.48.12l-2.51-.06-.06-3.11c0-4,0-5.38.12-10.93.06-2.51.12-7.29.18-10.57.06-3.29.12-6.45.12-6.99.06-.54.12-2.99.12-5.44v-4.36l1.25-.12c1.61-.06,8.66-.24,11.17-.24,1.49,0,2.21.06,3.35.36,1.25.36,2.87,1.02,3.46,1.55.06.06.6.42,1.08.84,1.85,1.49,3.05,2.93,3.94,5.02.3.66.6,1.55.66,1.91.06.36.24,1.02.36,1.55.3.9.42,1.43.54,3.29.12.66.18,1.43.18,1.67.06.3.12,2.63.18,5.26ZM296.35,43.18c-.12-2.51-.24-3.7-.84-6.03-.6-2.33-1.19-3.29-2.87-4.36-.3-.24-.66-.48-.66-.54-.06-.12-.9-.36-1.79-.6-1.43-.36-1.85-.42-3.05-.36-2.33.12-3.58.24-3.64.36-.06.06-.12,1.13-.18,2.39-.06,1.25-.12,3.11-.18,4.06-.06.96-.12,4.84-.12,8.6-.06,3.76-.12,8.36-.18,10.21-.06,1.85-.06,3.46,0,3.58.12.18,1.02.18,3.46-.06,4.12-.42,5.97-1.14,7.65-2.87,1.25-1.31,1.55-2.09,2.15-5.32.36-1.79.42-4.96.24-9.08Z"/>
      <path class="cls-1" d="M330.64,26.81c0,.66,0,2.03-.06,3.17l-.06,2.03-3.35-.06h-12.72c-.48,0-.9,0-.9.12,0,.3-.18,12.25-.18,12.66,0,.24.06.48.12.54,0,.06,2.81.06,6.09.06l6.09-.06v.48c.06,1.79,0,5.85-.06,5.91-.18.18-2.09.24-2.51.06-.24-.12-.48-.12-.6,0-.12.06-1.55.18-3.76.18h-4.42l-.84.06-.06,1.43c0,1.25.18,5.2.36,6.45,0,.24.06.42.06.48,0,.12,2.81.12,6.15.06,5.38-.12,9.98-.12,10.1,0,0,0,0,1.43.06,3.17,0,2.45-.06,3.11-.18,3.23-.12.06-1.02.12-2.03.06-.96-.06-2.63-.06-3.76-.06-1.08,0-5.32.06-9.38.06l-7.41.12v-.6c0-.36-.06-1.55-.06-2.75-.06-1.19-.12-2.87-.18-3.7-.3-5.5-.3-4.54-.24-21.15,0-4.48,0-8.54-.06-8.96,0-.48-.06-1.67-.12-2.69-.12-1.49-.12-1.79.06-1.79,1.31-.12,9.32.12,9.56.24.06.06.18.06.3-.06.24-.18,12.31-.12,13.26.06l.66.12.06,1.13Z"/>
    </g>
  </g>
</svg>